# xmcd
#
# Track frame offsets:
#	300
#	30114
#	60264
#	94238
#	129887
#	170905
#	205156
#	245380
#	281789
#
# Disc length: 4320 seconds
#
# Revision: 1
# Processed by: cddbd v1.5.2PL0 Copyright (c) Steve Scherf et al.
# Submitted via: audiograbber 1.83.01
#
DISCID=7510dc09
DTITLE=Andromeda - Equilibrium
DYEAR=1900
DGENRE=Psytrance
TTITLE0=Equilibrium
TTITLE1=I'll Fly With You
TTITLE2=Tron Escape
TTITLE3=The Great Giana Sisters
TTITLE4=Inharmonic Symphony
TTITLE5=Temple of Groove
TTITLE6=The Art of Winne the Pooh
TTITLE7=Cruise Control
TTITLE8=Heart of a Star
EXTD=
EXTT0=
EXTT1=
EXTT2=
EXTT3=
EXTT4=
EXTT5=
EXTT6=
EXTT7=
EXTT8=
PLAYORDER=
